<?xml version="1.0" encoding="UTF-8"?>
<svg xmlns="http://www.w3.org/2000/svg" xmlns:xlink="http://www.w3.org/1999/xlink" width="24px" height="24px" viewBox="0 0 24 24" version="1.1">
<g id="surface1">
<path style=" stroke:none;fill-rule:nonzero;fill:rgb(0%,0%,0%);fill-opacity:1;" d="M 1.890625 0.0117188 C 1.582031 0.0585938 1.386719 0.117188 1.167969 0.230469 C 0.554688 0.535156 0.121094 1.140625 0.0234375 1.832031 C -0.0078125 2.074219 -0.0078125 21.925781 0.0234375 22.167969 C 0.15625 23.121094 0.914062 23.867188 1.863281 23.976562 C 2.128906 24.007812 21.871094 24.007812 22.136719 23.976562 C 22.609375 23.925781 23.035156 23.71875 23.375 23.378906 C 23.707031 23.042969 23.917969 22.617188 23.976562 22.152344 C 24.007812 21.894531 24.007812 2.105469 23.976562 1.847656 C 23.859375 0.902344 23.117188 0.15625 22.167969 0.0234375 C 22.046875 0.0078125 19.058594 0 11.972656 0.00390625 C 6.457031 0.00390625 1.921875 0.0078125 1.890625 0.0117188 Z M 22.394531 0.328125 C 23.019531 0.523438 23.492188 1 23.671875 1.617188 L 23.722656 1.789062 L 23.722656 22.210938 L 23.671875 22.382812 C 23.476562 23.054688 22.917969 23.574219 22.25 23.703125 C 22 23.75 2 23.75 1.75 23.703125 C 1.082031 23.574219 0.523438 23.054688 0.328125 22.382812 L 0.277344 22.210938 L 0.277344 12 C 0.277344 2.285156 0.28125 1.78125 0.316406 1.644531 C 0.507812 0.945312 1.09375 0.410156 1.796875 0.289062 C 1.851562 0.28125 6.476562 0.273438 12.066406 0.277344 L 22.234375 0.277344 Z M 22.394531 0.328125 "/>
<path style=" stroke:none;fill-rule:nonzero;fill:rgb(0%,0%,0%);fill-opacity:1;" d="M 17.355469 7.269531 C 16.769531 7.300781 16.296875 7.421875 15.84375 7.644531 C 15.210938 7.960938 14.742188 8.40625 14.480469 8.9375 C 14.347656 9.210938 14.285156 9.453125 14.285156 9.730469 C 14.285156 10.0625 14.359375 10.316406 14.527344 10.558594 C 14.863281 11.046875 15.363281 11.285156 16.125 11.328125 L 16.398438 11.339844 L 16.367188 11.21875 C 16.292969 10.941406 16.261719 10.640625 16.273438 10.34375 C 16.300781 9.761719 16.464844 9.433594 16.878906 9.15625 C 17.351562 8.84375 17.894531 8.863281 18.285156 9.210938 C 18.578125 9.472656 18.671875 9.980469 18.523438 10.460938 C 18.363281 10.96875 17.949219 11.390625 17.179688 11.832031 C 16.90625 11.992188 16.4375 12.296875 16.246094 12.445312 C 15.988281 12.644531 15.699219 12.992188 15.523438 13.3125 C 15.359375 13.617188 15.246094 14.089844 15.210938 14.601562 C 15.191406 14.90625 15.226562 15.046875 15.363281 15.191406 C 15.746094 15.605469 16.792969 15.675781 17.347656 15.320312 L 17.460938 15.25 L 17.40625 15.039062 C 17.363281 14.886719 17.351562 14.769531 17.347656 14.589844 C 17.335938 13.910156 17.585938 13.625 18.753906 12.976562 C 19.191406 12.734375 19.6875 12.429688 19.863281 12.300781 C 20.171875 12.0625 20.492188 11.675781 20.648438 11.34375 C 20.957031 10.683594 20.957031 9.589844 20.652344 8.898438 C 20.496094 8.542969 20.085938 8.0625 19.746094 7.839844 C 19.074219 7.402344 18.296875 7.214844 17.355469 7.269531 Z M 17.355469 7.269531 "/>
<path style=" stroke:none;fill-rule:nonzero;fill:rgb(0%,0%,0%);fill-opacity:1;" d="M 5.1875 7.929688 C 4.570312 8.109375 4.089844 8.777344 3.890625 9.746094 C 3.8125 10.136719 3.734375 10.882812 3.734375 11.28125 L 3.734375 11.4375 L 3.800781 11.453125 C 3.921875 11.476562 3.929688 11.472656 3.945312 11.371094 C 3.992188 11.089844 4.164062 10.851562 4.414062 10.730469 C 4.542969 10.667969 4.570312 10.664062 4.730469 10.671875 C 4.941406 10.683594 5.082031 10.75 5.269531 10.933594 C 5.625 11.28125 6.082031 12.199219 6.558594 13.519531 L 6.675781 13.851562 L 6.570312 14.058594 C 6.296875 14.59375 5.882812 15.09375 5.445312 15.429688 C 4.847656 15.878906 4.113281 16.042969 3.265625 15.921875 L 3.167969 15.90625 L 3.074219 16.089844 C 2.871094 16.503906 2.792969 16.878906 2.792969 17.410156 C 2.792969 17.832031 2.828125 18.03125 2.957031 18.347656 C 3.210938 18.957031 3.640625 19.21875 4.261719 19.148438 C 5.320312 19.027344 6.421875 17.75 6.898438 16.078125 C 6.96875 15.835938 7.058594 15.449219 7.101562 15.210938 C 7.117188 15.101562 7.109375 15.085938 7.320312 15.632812 C 7.792969 16.847656 8.230469 17.730469 8.609375 18.246094 C 8.765625 18.449219 9.0625 18.753906 9.222656 18.859375 C 9.535156 19.070312 9.820312 19.15625 10.199219 19.15625 C 10.671875 19.15625 11.046875 19.003906 11.347656 18.6875 C 11.578125 18.441406 11.75 18.136719 11.890625 17.714844 C 12.035156 17.277344 12.105469 16.855469 12.125 16.28125 C 12.140625 15.875 12.140625 15.867188 12.023438 15.867188 C 11.96875 15.867188 11.960938 15.878906 11.9375 15.996094 C 11.855469 16.394531 11.640625 16.601562 11.3125 16.605469 C 11.105469 16.609375 10.945312 16.523438 10.738281 16.300781 C 10.398438 15.9375 9.898438 15.058594 9.300781 13.78125 L 9.132812 13.421875 L 9.253906 13.183594 C 9.492188 12.703125 9.714844 12.378906 10.019531 12.0625 C 10.28125 11.789062 10.519531 11.605469 10.785156 11.476562 C 11.101562 11.328125 11.292969 11.28125 11.632812 11.28125 C 11.941406 11.28125 12.097656 11.308594 12.359375 11.414062 C 12.433594 11.445312 12.496094 11.464844 12.496094 11.460938 C 12.640625 11.257812 12.875 10.652344 12.964844 10.253906 C 13.039062 9.914062 13.054688 9.796875 13.054688 9.410156 C 13.050781 8.945312 13.019531 8.785156 12.863281 8.464844 C 12.671875 8.074219 12.363281 7.890625 11.914062 7.890625 C 10.945312 7.890625 9.878906 8.882812 9.210938 10.398438 C 9.070312 10.714844 8.820312 11.46875 8.71875 11.882812 C 8.675781 12.070312 8.628906 12.214844 8.621094 12.207031 C 8.609375 12.199219 8.472656 11.859375 8.3125 11.457031 C 7.722656 9.988281 7.351562 9.265625 6.910156 8.710938 C 6.457031 8.140625 6.019531 7.886719 5.488281 7.890625 C 5.398438 7.890625 5.261719 7.910156 5.1875 7.929688 Z M 5.1875 7.929688 "/>
<path style=" stroke:none;fill-rule:nonzero;fill:rgb(0%,0%,0%);fill-opacity:1;" d="M 15.949219 16.199219 C 15.578125 16.265625 15.300781 16.40625 15.03125 16.675781 C 14.722656 16.984375 14.585938 17.28125 14.5625 17.6875 C 14.53125 18.21875 14.777344 18.6875 15.222656 18.960938 C 15.574219 19.171875 16.09375 19.222656 16.542969 19.085938 C 17.222656 18.882812 17.714844 18.246094 17.710938 17.574219 C 17.707031 17.011719 17.351562 16.496094 16.816406 16.285156 C 16.578125 16.191406 16.210938 16.15625 15.949219 16.199219 Z M 15.949219 16.199219 "/>
</g>
</svg>
